<svg viewBox="0 0 32.00 32.00" data-name="Layer 1" id="Layer_1" xmlns="http://www.w3.org/2000/svg" fill="#000000"
     stroke="#000000" stroke-width="0.00032">
    <g id="SVGRepo_bgCarrier" stroke-width="0"></g>
    <g id="SVGRepo_tracerCarrier" stroke-linecap="round" stroke-linejoin="round"></g>
    <g id="SVGRepo_iconCarrier">
        <defs>
            <style>.cls-1{fill:#000000;}</style>
        </defs>
        <title></title>
        <path class="cls-1"
              d="M28,8H21V6a2,2,0,0,0-2-2H13a2,2,0,0,0-2,2V8H4a2,2,0,0,0-2,2V26a2,2,0,0,0,2,2H28a2,2,0,0,0,2-2V10A2,2,0,0,0,28,8ZM13,6h6V8H13Zm15,4v9H4V10ZM4,26V21H28v5Z"></path>
        <path class="cls-1" d="M15,18h2a1,1,0,0,0,0-2H15a1,1,0,0,0,0,2Z"></path>
    </g>
</svg>
